<svg xmlns="http://www.w3.org/2000/svg" viewBox="0 0 518.36 130.37" width="137.284" height="41.536"><defs><style>.cls-1{fill:#dd261d;}.cls-2{fill:#0f7d60;}</style></defs><g id="Слой_2" data-name="Слой 2"><g id="Layer_1" data-name="Layer 1"><polygon class="cls-1" points="295.35 54.83 295.35 1.73 307.25 1.73 307.25 35.93 307.48 35.93 328.94 1.73 342.35 1.73 342.35 54.83 330.46 54.83 330.46 21.03 330.22 21.03 308.61 54.83 295.35 54.83"/><polygon class="cls-1" points="353.36 1.73 365.82 1.73 365.82 22.81 387.91 22.81 387.91 1.73 400.37 1.73 400.37 54.83 387.91 54.83 387.91 33.85 365.82 33.85 365.82 54.83 353.36 54.83 353.36 1.73"/><polygon class="cls-1" points="411.22 1.73 423.67 1.73 423.67 24.75 443.11 1.73 457.65 1.73 436.36 25.56 459.5 54.83 443.99 54.83 423.67 27.84 423.67 54.83 411.22 54.83 411.22 1.73"/><polygon class="cls-2" points="384.83 64.26 400.33 64.26 400.33 90.7 427.84 90.7 427.84 64.26 443.35 64.26 443.35 130.38 427.84 130.38 427.84 104.09 400.33 104.09 400.33 130.38 384.83 130.38 384.83 64.26"/><polygon class="cls-2" points="458.24 64.26 473.75 64.26 473.75 92.92 497.96 64.26 516.06 64.26 489.55 93.93 518.36 130.38 499.06 130.38 473.75 96.77 473.75 130.38 458.24 130.38 458.24 64.26"/><path class="cls-1" d="M119,0C101.64,0,87.54,12.85,87.54,28.64V64.92c0,15.8,14.1,28.64,31.43,28.64h39.66c14.26,0,26.79-7.22,30.39-19.67H110.17V21h79.16C186.24,7.76,173.57,0,158.63,0Z"/><path class="cls-1" d="M257.83,0c-10.46,0-19,7.76-19,17.29V39.18c0,9.54,8.51,17.29,19,17.29h11.55c8.61,0,16.17-4.36,18.34-11.87h-35.2v-32h35.39C286,4.69,278.39,0,269.38,0Z"/><path class="cls-2" d="M154.13,36.81c-14.26,0-26.79,7.22-30.39,19.67h78.85v53H123.44c3.08,13.18,15.76,20.94,30.69,20.94h39.66c17.33,0,31.43-12.84,31.43-28.64V65.45c0-15.79-14.1-28.64-31.43-28.64Z"/><path class="cls-1" d="M474.25,11.87H499.7v32H474.25ZM493.92,0H479.56c-10.47,0-19,7.76-19,17.29v21.9c0,9.53,8.5,17.28,19,17.28h14.83c10.46,0,19-7.75,19-17.28V17.29c0-9.53-8.51-17.29-19-17.29Z"/><path class="cls-2" d="M261.94,104.11h8.33v0h16.11v13.47H261.94ZM246.25,64.26v66.11H281c10.61,0,19.23-7.86,19.23-17.52v-4.6c0-9.66-8.62-17.52-19.23-17.52H261.75V77.66h34V64.26Z"/><path class="cls-2" d="M328.38,87.8h.06V77.54h24.69l.12,10.26v2.79H328.38Zm5.46-23.56c-10.63,0-19.27,7.88-19.27,17.57v6.94c0,.2,0,.4,0,.61v41h13.79V104.09h24.87v26.28h15.54V64.11Z"/><path class="cls-1" d="M83.68,65.37c0,17.58-16.49,29.86-40.09,29.86C25.53,95.23,10.86,89.71,0,78.79L14.43,66.74S32.35,79.12,43.89,79.12c11,0,18.61-5.56,18.61-13.49,0-8.41-9.36-13.45-25-13.45H27.72L24.23,41.07,53.38,15.6H6V0h75.9V13.19L51.67,38.67C72.33,41.52,83.68,51,83.68,65.37Z"/><path class="cls-1" d="M38.74,113.65a5.58,5.58,0,0,1,2.28-3,6.66,6.66,0,0,1,3.85-1.15H56.45a.88.88,0,0,1,.58.19.62.62,0,0,1,.23.49v19.38a.6.6,0,0,1-.23.48.89.89,0,0,1-.58.2H53.32a.79.79,0,0,1-.55-.2.59.59,0,0,1-.22-.48V114.34a.6.6,0,0,0-.24-.49.86.86,0,0,0-.57-.2H44.4a.89.89,0,0,0-1,.69l-4.64,15.23a1,1,0,0,1-1,.68h-3.3A.57.57,0,0,1,34,130a.39.39,0,0,1-.1-.47Z"/><path class="cls-1" d="M63.37,126.1V113.65a3.77,3.77,0,0,1,1.38-2.93,4.86,4.86,0,0,1,3.33-1.21H83.8a.81.81,0,0,1,.56.19.64.64,0,0,1,.22.49V113a.64.64,0,0,1-.22.49.81.81,0,0,1-.56.19h-15a.81.81,0,0,0-.55.2.61.61,0,0,0-.22.49v2.78a.61.61,0,0,0,.22.49.8.8,0,0,0,.55.19h15a.82.82,0,0,1,.56.2.64.64,0,0,1,.22.48v2.79a.64.64,0,0,1-.22.49.81.81,0,0,1-.56.19h-15a.85.85,0,0,0-.55.19.63.63,0,0,0-.22.49v2.79a.61.61,0,0,0,.22.49.8.8,0,0,0,.55.19h15a.81.81,0,0,1,.56.19.64.64,0,0,1,.22.49v2.79a.62.62,0,0,1-.22.48.82.82,0,0,1-.56.2H68.08A4.87,4.87,0,0,1,64.75,129,3.76,3.76,0,0,1,63.37,126.1Z"/><path class="cls-1" d="M90.64,110.19a.61.61,0,0,1,.22-.49.81.81,0,0,1,.56-.19h22a.78.78,0,0,1,.55.19.61.61,0,0,1,.22.49V113a.61.61,0,0,1-.22.49.78.78,0,0,1-.55.19h-7.88a.82.82,0,0,0-.56.2.64.64,0,0,0-.22.49v15.23a.59.59,0,0,1-.22.48.79.79,0,0,1-.55.2h-3.17a.79.79,0,0,1-.55-.2.59.59,0,0,1-.22-.48V114.34a.61.61,0,0,0-.22-.49.81.81,0,0,0-.55-.2H91.42a.81.81,0,0,1-.56-.19.61.61,0,0,1-.22-.49Z"/></g></g></svg>